<svg width="59" height="60" viewBox="0 0 59 60" fill="none" xmlns="http://www.w3.org/2000/svg">
  <g clip-path="url(#clip0_55_21)">
    <rect width="59" height="60" rx="10" fill="#FFEBCE"/>
    <path d="M20.1583 44C17.7246 44 15.7555 46.025 15.7555 48.5C15.7555 50.975 17.7246 53 20.1583 53C22.5921 53 24.5833 50.975 24.5833 48.5C24.5833 46.025 22.5921 44 20.1583 44ZM6.88333 10.25C6.88333 11.4875 7.87896 12.5 9.09583 12.5H11.3083L19.2733 29.5775L16.2865 35.0675C14.6713 38.0825 16.7953 41.75 20.1583 41.75H44.4958C45.7127 41.75 46.7083 40.7375 46.7083 39.5C46.7083 38.2625 45.7127 37.25 44.4958 37.25H20.1583L22.5921 32.75H39.0752C40.7346 32.75 42.1948 31.8275 42.9471 30.4325L50.8678 15.83C51.6865 14.345 50.6245 12.5 48.943 12.5H16.198L14.7156 9.2825C14.3616 8.495 13.5651 8 12.7243 8H9.09583C7.87896 8 6.88333 9.0125 6.88333 10.25ZM42.2833 44C39.8496 44 37.8805 46.025 37.8805 48.5C37.8805 50.975 39.8496 53 42.2833 53C44.7171 53 46.7083 50.975 46.7083 48.5C46.7083 46.025 44.7171 44 42.2833 44Z" fill="#F5A62E"/>
  </g>
  <rect x="0.5" y="0.5" width="58" height="59" rx="9.5" stroke="#F5A62E"/>
  <defs>
    <clipPath id="clip0_55_21">
      <rect width="59" height="60" rx="10" fill="white"/>
    </clipPath>
  </defs>
</svg>
