<svg width="205" height="30" viewBox="0 0 205 30" fill="none" xmlns="http://www.w3.org/2000/svg">
  <path d="M0 0H205V20C205 25.5228 200.523 30 195 30H10C4.47716 30 0 25.5228 0 20V0Z" fill="#FE5F55"/>
  <path d="M99.398 20.4C98.4084 20.4 97.6077 21.21 97.6077 22.2C97.6077 23.19 98.4084 24 99.398 24C100.388 24 101.197 23.19 101.197 22.2C101.197 21.21 100.388 20.4 99.398 20.4ZM94 6.9C94 7.395 94.4048 7.8 94.8997 7.8H95.7993L99.0381 14.631L97.8236 16.827C97.1668 18.033 98.0305 19.5 99.398 19.5H109.294C109.789 19.5 110.194 19.095 110.194 18.6C110.194 18.105 109.789 17.7 109.294 17.7H99.398L100.388 15.9H107.09C107.765 15.9 108.359 15.531 108.665 14.973L111.885 9.132C112.218 8.538 111.786 7.8 111.103 7.8H97.7876L97.1848 6.513C97.0409 6.198 96.717 6 96.3751 6H94.8997C94.4048 6 94 6.405 94 6.9V6.9ZM108.395 20.4C107.405 20.4 106.604 21.21 106.604 22.2C106.604 23.19 107.405 24 108.395 24C109.384 24 110.194 23.19 110.194 22.2C110.194 21.21 109.384 20.4 108.395 20.4Z" fill="white"/>
</svg>
