<svg width="59" height="60" viewBox="0 0 59 60" fill="none" xmlns="http://www.w3.org/2000/svg">
  <g clip-path="url(#clip0_55_10)">
    <rect width="59" height="60" rx="15" fill="#F5A62E"/>
    <path d="M14.2414 38.6207C14.2414 39.5729 15.0133 40.3448 15.9655 40.3448H43.0345C43.9867 40.3448 44.7586 39.5729 44.7586 38.6207C44.7586 37.6685 43.9867 36.8965 43.0345 36.8965H15.9655C15.0133 36.8965 14.2414 37.6685 14.2414 38.6207ZM14.2414 30C14.2414 30.9522 15.0133 31.7241 15.9655 31.7241H43.0345C43.9867 31.7241 44.7586 30.9522 44.7586 30C44.7586 29.0478 43.9867 28.2758 43.0345 28.2758H15.9655C15.0133 28.2758 14.2414 29.0478 14.2414 30ZM15.9655 19.6552C15.0133 19.6552 14.2414 20.4271 14.2414 21.3793C14.2414 22.3315 15.0133 23.1034 15.9655 23.1034H43.0345C43.9867 23.1034 44.7586 22.3315 44.7586 21.3793C44.7586 20.4271 43.9867 19.6552 43.0345 19.6552H15.9655Z" fill="white"/>
  </g>
  <defs>
    <clipPath id="clip0_55_10">
      <rect width="59" height="60" rx="15" fill="white"/>
    </clipPath>
  </defs>
</svg>