<svg width="60" height="60" viewBox="0 0 60 60" fill="none" xmlns="http://www.w3.org/2000/svg">
<g clip-path="url(#clip0_55_29)">
<rect width="60" height="60" rx="15" fill="#ECECEC"/>
<path d="M25 47.5V35H35V47.5C35 48.875 36.125 50 37.5 50H45C46.375 50 47.5 48.875 47.5 47.5V30H51.75C52.9 30 53.45 28.575 52.575 27.825L31.675 8.99999C30.725 8.14999 29.275 8.14999 28.325 8.99999L7.425 27.825C6.575 28.575 7.1 30 8.25 30H12.5V47.5C12.5 48.875 13.625 50 15 50H22.5C23.875 50 25 48.875 25 47.5Z" fill="#F5A62E"/>
</g>
<defs>
<clipPath id="clip0_55_29">
<rect width="60" height="60" rx="15" fill="white"/>
</clipPath>
</defs>
</svg>
