<svg width="29" height="29" viewBox="0 0 29 29" fill="none" xmlns="http://www.w3.org/2000/svg">
  <path d="M20.8333 18.3333H19.5167L19.05 17.8833C21.05 15.55 22.0833 12.3667 21.5167 8.98334C20.7333 4.35001 16.8667 0.650005 12.2 0.0833384C5.15 -0.783328 -0.783328 5.15 0.0833384 12.2C0.650005 16.8667 4.35001 20.7333 8.98334 21.5167C12.3667 22.0833 15.55 21.05 17.8833 19.05L18.3333 19.5167V20.8333L25.4167 27.9167C26.1 28.6 27.2167 28.6 27.9 27.9167C28.5833 27.2333 28.5833 26.1167 27.9 25.4333L20.8333 18.3333ZM10.8333 18.3333C6.68334 18.3333 3.33334 14.9833 3.33334 10.8333C3.33334 6.68334 6.68334 3.33334 10.8333 3.33334C14.9833 3.33334 18.3333 6.68334 18.3333 10.8333C18.3333 14.9833 14.9833 18.3333 10.8333 18.3333Z" fill="#F5A62E"/>
</svg>
